<?xml version="1.0" encoding="UTF-8"?><svg id="Layer_1" xmlns="http://www.w3.org/2000/svg" viewBox="0 0 513.69 386.9"><defs><style>.cls-1{stroke-linecap:round;stroke-width:.85px;}.cls-1,.cls-2{fill:#010101;stroke:#117e3f;}.cls-2{fill-rule:evenodd;}.cls-3{fill:#231f20;font-family:GoudyBookletter1911, 'Goudy Bookletter 1911';font-size:200px;}</style></defs><text class="cls-3" transform="translate(124.22 230.32)"><tspan x="0" y="0">PU</tspan></text><path class="cls-2" d="M273.67,364.15c27.61-19.01,50.53-2.32,71.52,16.56-27.1,7.36-55.79,10.7-71.52-16.56Z"/><path class="cls-2" d="M280.3,347.79c1.23-33.5,28.3-41.92,55.97-47.5-10.27,26.13-24.71,51.15-55.97,47.5Z"/><path class="cls-2" d="M322.9,349.06c25.9-21.28,50.15-6.58,72.66,10.46-26.38,9.63-54.69,15.38-72.66-10.46Z"/><path class="cls-2" d="M346.92,333.17c-16.14-29.38,2.77-50.51,23.66-69.49,4.6,27.7,5.04,56.59-23.66,69.49Z"/><path class="cls-2" d="M367.89,332.52c19.06-27.58,46.41-20.11,72.74-9.92-22.72,16.5-48.36,29.82-72.74,9.92Z"/><path class="cls-2" d="M394.8,307.92c-24.66-22.71-13.46-48.76.29-73.41,13.19,24.79,22.8,52.03-.29,73.41h0Z"/><path class="cls-2" d="M407.9,305.15c13.46-30.7,41.74-28.57,69.52-23.57-19.16,20.52-41.8,38.47-69.52,23.57Z"/><path class="cls-2" d="M430.37,275.47c-28.44-17.74-22.27-45.41-13.33-72.19,17.55,21.91,32.06,46.9,13.33,72.19Z"/><path class="cls-2" d="M440.3,271.32c7.42-32.69,35.58-35.95,63.81-36.29-14.94,23.78-33.77,45.68-63.81,36.29Z"/><path class="cls-2" d="M448.74,223.28c-30.29-14.36-27.33-42.57-21.51-70.19,19.95,19.76,37.22,42.92,21.51,70.19Z"/><path class="cls-2" d="M453.79,232.63c3.48-33.34,31.06-39.92,59.05-43.61-12.01,25.38-28.11,49.37-59.05,43.61Z"/><path class="cls-2" d="M461.48,168.63c-32.73-7.23-36.15-35.38-36.65-63.61,23.86,14.8,45.87,33.52,36.65,63.61Z"/><path class="cls-2" d="M467.88,193.22c-9.47-32.15,13.53-48.74,38-62.81-1.44,28.04-7.2,56.35-38,62.81Z"/><path class="cls-2" d="M448.6,105.47c-33.48,1.68-44.22-24.57-52.16-51.66,26.92,7.97,53.1,20.2,52.16,51.66Z"/><path class="cls-2" d="M470.16,141.55c-20.12-26.81-4.37-50.39,13.63-72.13,8.46,26.77,12.96,55.31-13.63,72.13Z"/><path class="cls-2" d="M433.96,57.78c-33.46-1.93-41.32-29.18-46.31-56.96,25.91,10.82,50.62,25.79,46.31,56.96Z"/><path class="cls-2" d="M455.32,86.7c-25.14-22.17-14.51-48.45-1.3-73.4,13.72,24.5,23.92,51.53,1.3,73.4Z"/><path class="cls-2" d="M240.02,364.64c-27.61-19.01-50.53-2.32-71.52,16.56,27.1,7.36,55.79,10.7,71.52-16.56Z"/><path class="cls-2" d="M233.38,348.27c-1.23-33.5-28.3-41.92-55.97-47.5,10.27,26.13,24.71,51.15,55.97,47.5Z"/><path class="cls-2" d="M190.79,349.54c-25.9-21.28-50.15-6.58-72.66,10.46,26.38,9.63,54.69,15.38,72.66-10.46Z"/><path class="cls-2" d="M166.77,333.66c16.14-29.38-2.77-50.51-23.66-69.49-4.6,27.7-5.04,56.59,23.66,69.49Z"/><path class="cls-2" d="M145.8,333c-19.06-27.58-46.41-20.11-72.74-9.92,22.72,16.5,48.36,29.82,72.74,9.92Z"/><path class="cls-2" d="M118.89,308.41c24.66-22.71,13.46-48.76-.29-73.41-13.19,24.79-22.8,52.03.29,73.41h0Z"/><path class="cls-2" d="M105.79,305.63c-13.46-30.7-41.74-28.57-69.52-23.57,19.16,20.52,41.8,38.47,69.52,23.57Z"/><path class="cls-2" d="M83.32,275.96c28.44-17.74,22.27-45.41,13.33-72.19-17.55,21.91-32.06,46.9-13.33,72.19Z"/><path class="cls-2" d="M73.39,271.8c-7.42-32.69-35.58-35.95-63.81-36.29,14.94,23.78,33.77,45.68,63.81,36.29Z"/><path class="cls-2" d="M64.94,223.76c30.29-14.36,27.33-42.57,21.51-70.19-19.95,19.76-37.22,42.92-21.51,70.19Z"/><path class="cls-2" d="M59.9,233.11c-3.48-33.34-31.06-39.92-59.05-43.61,12.01,25.38,28.11,49.37,59.05,43.61Z"/><path class="cls-2" d="M52.21,169.12c32.73-7.23,36.15-35.38,36.65-63.61-23.86,14.8-45.87,33.52-36.65,63.61Z"/><path class="cls-2" d="M45.81,193.7c9.47-32.15-13.53-48.74-38-62.81,1.44,28.04,7.2,56.35,38,62.81Z"/><path class="cls-2" d="M65.09,105.95c33.48,1.68,44.22-24.57,52.16-51.66-26.92,7.97-53.1,20.2-52.16,51.66Z"/><path class="cls-2" d="M43.53,142.04c20.12-26.81,4.37-50.39-13.63-72.13-8.46,26.77-12.96,55.31,13.63,72.13Z"/><path class="cls-2" d="M79.73,58.26c33.46-1.93,41.32-29.18,46.31-56.96-25.91,10.82-50.62,25.79-46.31,56.96Z"/><path class="cls-2" d="M58.37,87.18c25.14-22.17,14.51-48.45,1.3-73.4-13.72,24.5-23.92,51.53-1.3,73.4Z"/><path class="cls-1" d="M266.46,357.88c0,5.36-4.35,9.71-9.71,9.71s-9.71-4.35-9.71-9.71,4.35-9.71,9.71-9.71,9.71,4.35,9.71,9.71h0Z"/></svg>