<svg xmlns="http://www.w3.org/2000/svg" xmlns:xlink="http://www.w3.org/1999/xlink" width="500" zoomAndPan="magnify" viewBox="0 0 375 374.999991" height="500" preserveAspectRatio="xMidYMid meet" version="1.0"><defs><clipPath id="6d981bd632"><path d="M 33.75 0 L 341.25 0 L 341.25 307 L 33.75 307 Z M 33.75 0 " clip-rule="nonzero"/></clipPath><clipPath id="ba2f229176"><path d="M 70.46875 136.332031 C 71.644531 136.148438 72.820312 136.242188 73.996094 136.421875 L 87.917969 96.734375 C 84.933594 95.558594 82.675781 92.847656 82.132812 89.410156 C 81.320312 84.347656 84.84375 79.554688 90 78.832031 C 92.710938 78.382812 95.332031 79.195312 97.320312 80.820312 L 124.894531 56.59375 C 124.082031 55.417969 123.539062 54.152344 123.359375 52.617188 C 122.542969 47.554688 126.070312 42.761719 131.222656 41.949219 C 135.652344 41.316406 139.8125 43.847656 141.347656 47.824219 L 186.097656 36.253906 C 187.003906 31.824219 190.527344 28.207031 195.230469 27.574219 C 195.683594 27.484375 196.042969 27.484375 196.496094 27.484375 L 196.316406 8.5 C 194.234375 8.136719 192.699219 6.417969 192.699219 4.25 C 192.699219 1.898438 194.597656 0 196.949219 0 C 199.296875 0 201.195312 1.898438 201.195312 4.25 C 201.195312 6.148438 199.929688 7.773438 198.214844 8.316406 L 198.394531 27.484375 C 203.09375 28.117188 206.980469 31.824219 207.707031 36.703125 C 207.886719 38.058594 207.886719 39.328125 207.613281 40.59375 L 263.304688 62.019531 C 265.113281 58.222656 268.730469 55.417969 273.160156 54.695312 C 276.234375 54.242188 279.125 54.875 281.65625 56.230469 L 293.320312 34.535156 C 291.871094 33.449219 290.96875 31.730469 290.96875 29.832031 C 290.96875 26.488281 293.679688 23.777344 297.027344 23.777344 C 300.371094 23.777344 303.082031 26.488281 303.082031 29.832031 C 303.082031 33.179688 300.371094 35.890625 297.027344 35.890625 C 296.300781 35.890625 295.667969 35.800781 295.035156 35.527344 L 283.011719 57.679688 C 285.542969 59.667969 287.351562 62.558594 287.894531 66.085938 C 288.707031 71.421875 286.175781 76.390625 282.019531 79.105469 L 297.476562 108.125 C 298.292969 107.761719 299.195312 107.582031 300.097656 107.402344 C 306.15625 106.496094 311.761719 110.65625 312.664062 116.710938 C 313.570312 122.5 309.683594 128.011719 303.988281 129.1875 L 308.054688 164.085938 C 311.398438 165.53125 313.929688 168.695312 314.5625 172.582031 C 315.46875 178.640625 311.308594 184.246094 305.253906 185.148438 C 304.800781 185.238281 304.347656 185.238281 303.894531 185.238281 L 297.207031 203.230469 C 301.90625 205.308594 305.433594 209.738281 306.246094 215.164062 C 307.511719 223.753906 301.636719 231.707031 293.046875 233.0625 C 292.144531 233.246094 291.148438 233.246094 290.246094 233.246094 L 288.890625 266.152344 C 291.332031 266.605469 293.230469 268.773438 293.230469 271.304688 C 293.230469 274.199219 290.878906 276.550781 287.984375 276.550781 C 285.09375 276.550781 282.742188 274.199219 282.742188 271.304688 C 282.742188 268.773438 284.550781 266.605469 286.992188 266.152344 L 288.347656 233.0625 C 284.640625 232.523438 281.296875 230.625 278.855469 227.820312 L 240.792969 256.660156 C 241.605469 257.925781 242.148438 259.460938 242.421875 261.089844 C 243.414062 267.417969 239.074219 273.292969 232.746094 274.199219 C 231.390625 274.378906 230.035156 274.378906 228.679688 274.109375 L 228.589844 291.738281 C 230.941406 292.820312 232.65625 294.71875 232.65625 298.066406 C 232.65625 301.410156 229.3125 305.117188 225.605469 305.117188 C 221.898438 305.117188 219.097656 302.496094 218.644531 299.058594 L 189.894531 299.058594 C 189.445312 303.488281 185.648438 306.925781 181.125 306.925781 C 176.605469 306.925781 172.898438 303.488281 172.355469 299.058594 L 151.472656 297.703125 C 151.023438 301.140625 148.21875 303.761719 144.511719 303.761719 C 140.804688 303.761719 137.460938 299.964844 137.460938 296.710938 C 137.460938 293.453125 138.90625 291.828125 140.988281 290.5625 L 134.296875 269.40625 L 134.207031 269.40625 C 127.425781 270.402344 121.097656 265.789062 120.101562 259.011719 C 119.5625 255.394531 120.644531 251.957031 122.726562 249.335938 L 85.296875 212.8125 C 84.300781 213.535156 83.128906 214.078125 81.863281 214.261719 C 80.777344 214.441406 79.78125 214.351562 78.789062 214.078125 L 62.875 241.5625 C 64.867188 243.097656 66.222656 245.449219 66.222656 248.160156 C 66.222656 248.523438 66.222656 248.976562 66.132812 249.335938 L 85.027344 254.308594 C 85.839844 252.589844 87.558594 251.507812 89.546875 251.507812 C 92.347656 251.507812 94.609375 253.765625 94.609375 256.570312 C 94.609375 259.371094 92.347656 261.632812 89.546875 261.632812 C 86.742188 261.632812 84.484375 259.371094 84.484375 256.570312 C 84.484375 256.480469 84.484375 256.386719 84.484375 256.296875 L 65.589844 251.324219 C 64.414062 254.398438 61.339844 256.570312 57.90625 256.570312 C 53.292969 256.570312 49.585938 252.863281 49.585938 248.253906 C 49.585938 243.640625 53.292969 239.933594 57.90625 239.933594 C 59.078125 239.933594 60.164062 240.207031 61.25 240.65625 L 77.070312 213.445312 C 75.171875 212.359375 73.816406 210.460938 73.453125 208.203125 C 72.910156 204.496094 75.171875 201.0625 78.699219 199.976562 L 72.1875 154.953125 C 67.488281 155.136719 63.328125 151.789062 62.605469 147 C 61.792969 141.84375 65.316406 137.054688 70.46875 136.332031 Z M 258.421875 274.019531 C 256.613281 274.019531 255.167969 275.464844 255.167969 277.273438 C 255.167969 279.082031 256.613281 280.527344 258.421875 280.527344 C 260.230469 280.527344 261.675781 279.082031 261.675781 277.273438 C 261.675781 275.554688 260.230469 274.019531 258.421875 274.019531 Z M 252.816406 22.78125 C 250.285156 22.78125 248.296875 24.769531 248.296875 27.300781 C 248.296875 29.832031 250.285156 31.824219 252.816406 31.824219 C 255.347656 31.824219 257.335938 29.832031 257.335938 27.300781 C 257.335938 24.863281 255.347656 22.78125 252.816406 22.78125 Z M 333.730469 114.722656 C 337.890625 114.722656 341.234375 118.070312 341.234375 122.226562 C 341.234375 126.386719 337.890625 129.730469 333.730469 129.730469 C 329.570312 129.730469 326.226562 126.386719 326.226562 122.226562 C 326.226562 118.160156 329.570312 114.722656 333.730469 114.722656 Z M 41.8125 125.84375 C 37.382812 125.84375 33.765625 129.460938 33.765625 133.890625 C 33.765625 138.320312 37.382812 141.9375 41.8125 141.9375 C 46.242188 141.9375 49.859375 138.320312 49.859375 133.890625 C 49.859375 129.371094 46.242188 125.84375 41.8125 125.84375 Z M 114.679688 7.230469 C 110.519531 7.230469 107.175781 10.578125 107.175781 14.734375 C 107.175781 18.894531 110.519531 22.238281 114.679688 22.238281 C 118.835938 22.238281 122.183594 18.894531 122.183594 14.734375 C 122.183594 10.578125 118.835938 7.230469 114.679688 7.230469 Z M 65.136719 53.429688 C 61.972656 53.429688 59.351562 56.050781 59.351562 59.214844 C 59.351562 62.378906 61.972656 65 65.136719 65 C 68.300781 65 70.921875 62.378906 70.921875 59.214844 C 70.921875 56.050781 68.390625 53.429688 65.136719 53.429688 Z M 326.226562 201.421875 C 328.035156 201.421875 329.480469 202.867188 329.480469 204.675781 C 329.480469 206.484375 328.035156 207.929688 326.226562 207.929688 C 324.417969 207.929688 322.972656 206.484375 322.972656 204.675781 C 322.972656 202.867188 324.417969 201.421875 326.226562 201.421875 Z M 85.75 200.335938 L 86.5625 200.789062 L 86.019531 201.785156 C 86.5625 202.328125 87.015625 202.960938 87.375 203.683594 L 128.238281 190.03125 C 128.058594 189.398438 127.96875 188.765625 127.878906 188.132812 C 127.335938 184.699219 127.878906 181.351562 129.234375 178.367188 L 105.367188 165.710938 Z M 226.871094 273.476562 C 225.152344 272.75 223.527344 271.667969 222.351562 270.3125 L 187.273438 291.738281 C 188.71875 293.09375 189.714844 294.992188 189.894531 297.070312 L 218.644531 297.070312 C 219.097656 293.636719 223.617188 291.015625 225.605469 291.015625 C 227.59375 291.015625 226.417969 291.015625 226.78125 291.105469 Z M 221.175781 268.773438 C 220.8125 268.230469 220.542969 267.597656 220.273438 266.875 L 192.515625 264.523438 L 192.515625 264.617188 C 193.242188 269.40625 189.984375 273.835938 185.195312 274.558594 C 180.402344 275.285156 175.703125 270.21875 175.25 267.238281 C 174.796875 264.253906 175.160156 264.796875 175.429688 263.621094 L 143.425781 262.808594 C 142.886719 263.890625 142.160156 264.886719 141.347656 265.789062 L 176.695312 290.472656 C 177.960938 289.75 179.410156 289.296875 181.035156 289.296875 C 182.664062 289.296875 184.199219 289.75 185.554688 290.5625 Z M 139.992188 266.964844 C 138.90625 267.78125 137.640625 268.414062 136.375 268.863281 L 142.886719 289.75 C 143.425781 289.65625 142.523438 289.566406 144.601562 289.566406 C 146.683594 289.566406 151.113281 292.1875 151.5625 295.625 L 172.449219 296.980469 C 172.71875 294.8125 173.714844 292.820312 175.25 291.464844 Z M 141.710938 50.085938 C 141.980469 51.800781 141.710938 53.519531 141.078125 54.964844 L 177.511719 75.035156 C 179.316406 71.238281 182.933594 68.4375 187.363281 67.714844 C 188.085938 67.621094 188.71875 67.53125 189.445312 67.53125 L 193.421875 49 C 189.535156 47.824219 186.550781 44.480469 185.917969 40.140625 C 185.828125 39.597656 185.828125 39.054688 185.828125 38.601562 Z M 140.082031 56.773438 C 138.636719 58.761719 136.464844 60.210938 133.84375 60.660156 C 130.953125 61.113281 128.148438 60.121094 126.160156 58.3125 L 98.675781 82.359375 C 99.671875 83.625 100.304688 85.070312 100.574219 86.699219 C 100.847656 88.597656 100.574219 90.40625 99.851562 91.941406 L 124.804688 106.859375 C 126.523438 104.507812 129.054688 102.882812 132.125 102.429688 C 135.5625 101.886719 138.816406 102.972656 141.167969 105.050781 L 177.238281 85.882812 C 176.785156 84.890625 176.515625 83.804688 176.335938 82.628906 C 176.0625 80.640625 176.152344 78.742188 176.695312 76.933594 Z M 98.765625 93.75 C 97.320312 95.648438 95.242188 96.914062 92.710938 97.367188 C 91.714844 97.546875 90.8125 97.546875 89.90625 97.367188 L 75.894531 137.144531 C 78.605469 138.410156 80.597656 141.03125 81.046875 144.195312 C 81.320312 146.273438 80.957031 148.265625 80.054688 149.980469 L 104.554688 163 L 127.425781 122.679688 C 124.984375 120.960938 123.265625 118.339844 122.726562 115.175781 C 122.363281 112.824219 122.726562 110.65625 123.71875 108.667969 Z M 78.878906 151.699219 C 77.703125 153.054688 76.074219 154.140625 74.175781 154.59375 L 80.6875 199.613281 C 81.679688 199.613281 82.585938 199.796875 83.398438 200.15625 L 103.46875 164.808594 Z M 88.007812 205.671875 C 88.007812 205.761719 88.007812 205.851562 88.007812 205.941406 C 88.28125 207.929688 87.738281 209.921875 86.652344 211.367188 L 124.261719 247.800781 C 125.980469 246.261719 128.148438 245.269531 130.589844 244.90625 C 130.859375 244.816406 131.222656 244.816406 131.492188 244.816406 L 140.355469 202.234375 C 135.199219 200.878906 130.953125 197.082031 128.871094 192.019531 Z M 133.664062 244.816406 C 138.003906 245.179688 141.800781 247.890625 143.699219 251.777344 L 191.882812 213.265625 C 191.25 212.269531 190.800781 211.097656 190.617188 209.828125 C 190.4375 208.746094 190.527344 207.660156 190.710938 206.664062 L 158.523438 196.089844 C 155.902344 199.523438 152.015625 201.964844 147.496094 202.597656 C 145.777344 202.867188 144.058594 202.867188 142.433594 202.597656 Z M 144.421875 253.855469 C 144.511719 254.308594 144.691406 254.851562 144.691406 255.304688 C 144.964844 257.203125 144.785156 259.101562 144.242188 260.820312 L 176.246094 261.632812 C 177.511719 259.371094 180.765625 257.472656 182.574219 257.203125 C 184.382812 256.929688 184.289062 257.113281 185.105469 257.203125 L 196.042969 216.792969 C 194.867188 216.339844 193.875 215.617188 192.96875 214.800781 Z M 187.183594 257.835938 C 189.351562 258.738281 191.070312 260.367188 191.976562 262.535156 L 219.730469 264.886719 C 219.730469 264.796875 219.640625 264.617188 219.640625 264.523438 C 219.097656 260.726562 220.453125 257.019531 222.984375 254.582031 L 202.824219 216.882812 C 202.191406 217.152344 201.558594 217.332031 200.835938 217.425781 C 199.929688 217.605469 199.027344 217.515625 198.121094 217.425781 Z M 224.609375 253.222656 C 225.96875 252.320312 227.59375 251.6875 229.3125 251.417969 C 233.289062 250.785156 237.085938 252.320312 239.527344 255.03125 L 277.589844 226.191406 C 276.59375 224.65625 275.871094 223.027344 275.417969 221.222656 L 208.15625 210.824219 C 207.613281 212.902344 206.347656 214.621094 204.632812 215.886719 Z M 275.148438 218.960938 C 274.785156 215.253906 275.78125 211.730469 277.679688 208.746094 L 254.804688 191.296875 L 208.339844 206.574219 C 208.339844 206.757812 208.429688 206.9375 208.429688 207.027344 C 208.519531 207.570312 208.519531 208.113281 208.519531 208.746094 Z M 278.945312 207.117188 C 281.296875 204.40625 284.640625 202.507812 288.4375 201.875 C 290.789062 201.511719 293.136719 201.695312 295.308594 202.328125 L 301.816406 184.96875 C 298.109375 184.335938 295.035156 181.894531 293.5 178.460938 L 257.15625 190.484375 Z M 292.867188 176.652344 C 292.777344 176.378906 292.777344 176.109375 292.6875 175.835938 C 291.78125 169.78125 295.941406 164.175781 301.996094 163.269531 C 303.355469 163.089844 304.621094 163.089844 305.886719 163.363281 L 301.90625 129.371094 C 298.019531 129.460938 294.402344 127.472656 292.324219 124.308594 L 228.136719 157.304688 C 228.589844 158.207031 228.859375 159.203125 229.042969 160.289062 C 229.492188 163 228.859375 165.710938 227.503906 167.882812 L 255.257812 189.035156 Z M 291.421875 122.410156 C 291.148438 121.59375 290.878906 120.78125 290.789062 119.96875 C 290.15625 115.539062 292.144531 111.378906 295.667969 109.117188 L 280.210938 80.097656 C 279.214844 80.550781 278.039062 80.914062 276.957031 81.003906 C 272.796875 81.636719 268.820312 80.28125 266.015625 77.566406 L 241.425781 96.460938 L 266.199219 104.417969 C 267.011719 102.882812 268.546875 101.707031 270.445312 101.433594 C 273.609375 100.980469 276.59375 103.152344 277.046875 106.316406 C 277.5 109.480469 275.328125 112.464844 272.164062 112.914062 C 270.628906 113.097656 269.179688 112.734375 268.003906 112.011719 L 226.417969 154.683594 C 226.691406 154.953125 226.871094 155.226562 227.050781 155.496094 Z M 266.558594 110.566406 C 266.46875 110.476562 266.378906 110.292969 266.289062 110.203125 L 186.820312 140.941406 C 186.914062 141.121094 186.914062 141.304688 186.914062 141.574219 C 187.546875 145.734375 184.652344 149.53125 180.585938 150.164062 C 178.777344 150.433594 176.96875 150.074219 175.519531 149.167969 L 156.445312 172.855469 C 158.074219 174.300781 159.429688 176.109375 160.332031 178.097656 L 206.890625 164.085938 C 206.890625 163.902344 206.800781 163.722656 206.800781 163.542969 C 205.898438 157.394531 210.054688 151.699219 216.203125 150.796875 C 219.457031 150.34375 222.53125 151.246094 224.882812 153.144531 Z M 265.566406 108.304688 C 265.566406 108.214844 265.566406 108.125 265.566406 108.035156 C 265.472656 107.492188 265.472656 106.949219 265.566406 106.40625 L 239.4375 98 L 186.097656 138.953125 L 186.097656 139.042969 Z M 173.984375 147.902344 C 172.988281 146.816406 172.265625 145.460938 171.996094 143.835938 C 171.363281 139.675781 174.253906 135.878906 178.324219 135.246094 C 178.683594 135.15625 179.046875 135.15625 179.410156 135.15625 L 184.921875 93.117188 C 182.210938 92.121094 179.769531 90.222656 178.234375 87.785156 L 142.613281 106.679688 C 143.699219 108.125 144.511719 109.933594 144.785156 111.832031 C 145.6875 117.980469 141.527344 123.675781 135.382812 124.578125 C 135.019531 124.667969 134.660156 124.667969 134.296875 124.667969 L 142.613281 168.515625 C 147.042969 167.972656 151.382812 169.148438 154.820312 171.589844 Z M 132.21875 124.578125 C 131.132812 124.398438 130.136719 124.125 129.144531 123.675781 L 106.269531 163.902344 L 130.046875 176.5625 C 132.308594 172.855469 136.015625 169.960938 140.535156 168.875 Z M 159.699219 194.28125 L 191.25 204.675781 C 192.515625 202.054688 194.957031 199.976562 198.121094 199.523438 C 199.296875 199.34375 200.382812 199.433594 201.46875 199.613281 L 211.414062 171.046875 C 209.695312 169.871094 208.339844 168.152344 207.523438 166.164062 L 161.148438 180.085938 C 161.507812 180.992188 161.6875 181.984375 161.871094 183.070312 C 162.503906 187.046875 161.6875 191.027344 159.699219 194.28125 Z M 213.21875 172.132812 L 203.367188 200.335938 C 205.265625 201.242188 206.710938 202.777344 207.613281 204.675781 L 252.726562 189.851562 L 226.058594 169.507812 C 224.429688 171.316406 222.078125 172.582031 219.457031 173.035156 C 217.378906 173.304688 215.210938 172.945312 213.21875 172.132812 Z M 262.308594 64.277344 L 206.800781 42.851562 C 205.355469 46.289062 202.28125 48.820312 198.304688 49.453125 C 197.308594 49.632812 196.316406 49.632812 195.410156 49.542969 L 191.523438 67.804688 C 196.949219 68.707031 201.46875 73.046875 202.28125 78.832031 C 202.550781 80.550781 202.460938 82.269531 202.101562 83.804688 L 238.984375 95.738281 L 264.480469 76.121094 C 263.125 74.402344 262.21875 72.324219 261.859375 70.0625 C 261.675781 67.984375 261.769531 65.996094 262.308594 64.277344 Z M 187.003906 93.570312 L 181.488281 135.335938 C 182.753906 135.699219 183.929688 136.332031 184.832031 137.234375 L 236.996094 97.09375 L 201.46875 85.613281 C 199.75 89.773438 196.042969 92.847656 191.25 93.570312 C 189.804688 93.929688 188.359375 93.839844 187.003906 93.570312 Z M 187.003906 93.570312 " clip-rule="evenodd"/></clipPath><linearGradient x1="344.645066" gradientTransform="matrix(0.90405, 0, 0, 0.90405, 33.76627, 0.18082)" y1="334.593379" x2="-0.986011" gradientUnits="userSpaceOnUse" y2="0.821045" id="2e3e15c86b"><stop stop-opacity="1" stop-color="rgb(0%, 72.158813%, 70.979309%)" offset="0"/><stop stop-opacity="1" stop-color="rgb(0%, 72.158813%, 70.979309%)" offset="0.0625"/><stop stop-opacity="1" stop-color="rgb(0%, 72.158813%, 70.979309%)" offset="0.09375"/><stop stop-opacity="1" stop-color="rgb(0%, 72.158813%, 70.979309%)" offset="0.109375"/><stop stop-opacity="1" stop-color="rgb(0.0442505%, 72.161865%, 70.944214%)" offset="0.117188"/><stop stop-opacity="1" stop-color="rgb(0.692749%, 72.216797%, 70.458984%)" offset="0.121094"/><stop stop-opacity="1" stop-color="rgb(1.296997%, 72.268677%, 70.00885%)" offset="0.125"/><stop stop-opacity="1" stop-color="rgb(1.899719%, 72.319031%, 69.558716%)" offset="0.128906"/><stop stop-opacity="1" stop-color="rgb(2.503967%, 72.370911%, 69.108582%)" offset="0.132812"/><stop stop-opacity="1" stop-color="rgb(3.106689%, 72.421265%, 68.656921%)" offset="0.136719"/><stop stop-opacity="1" stop-color="rgb(3.710938%, 72.471619%, 68.206787%)" offset="0.140625"/><stop stop-opacity="1" stop-color="rgb(4.31366%, 72.521973%, 67.755127%)" offset="0.144531"/><stop stop-opacity="1" stop-color="rgb(4.917908%, 72.573853%, 67.304993%)" offset="0.148437"/><stop stop-opacity="1" stop-color="rgb(5.52063%, 72.624207%, 66.853333%)" offset="0.152344"/><stop stop-opacity="1" stop-color="rgb(6.124878%, 72.676086%, 66.403198%)" offset="0.15625"/><stop stop-opacity="1" stop-color="rgb(6.7276%, 72.72644%, 65.951538%)" offset="0.160156"/><stop stop-opacity="1" stop-color="rgb(7.331848%, 72.77832%, 65.501404%)" offset="0.164062"/><stop stop-opacity="1" stop-color="rgb(7.93457%, 72.828674%, 65.05127%)" offset="0.167969"/><stop stop-opacity="1" stop-color="rgb(8.538818%, 72.879028%, 64.601135%)" offset="0.171875"/><stop stop-opacity="1" stop-color="rgb(9.141541%, 72.929382%, 64.149475%)" offset="0.175781"/><stop stop-opacity="1" stop-color="rgb(9.744263%, 72.981262%, 63.699341%)" offset="0.179688"/><stop stop-opacity="1" stop-color="rgb(10.346985%, 73.031616%, 63.247681%)" offset="0.183594"/><stop stop-opacity="1" stop-color="rgb(10.951233%, 73.083496%, 62.797546%)" offset="0.1875"/><stop stop-opacity="1" stop-color="rgb(11.553955%, 73.13385%, 62.345886%)" offset="0.191406"/><stop stop-opacity="1" stop-color="rgb(12.158203%, 73.184204%, 61.895752%)" offset="0.195312"/><stop stop-opacity="1" stop-color="rgb(12.760925%, 73.234558%, 61.445618%)" offset="0.199219"/><stop stop-opacity="1" stop-color="rgb(13.365173%, 73.286438%, 60.995483%)" offset="0.203125"/><stop stop-opacity="1" stop-color="rgb(13.967896%, 73.336792%, 60.543823%)" offset="0.207031"/><stop stop-opacity="1" stop-color="rgb(14.572144%, 73.388672%, 60.093689%)" offset="0.210938"/><stop stop-opacity="1" stop-color="rgb(15.174866%, 73.439026%, 59.642029%)" offset="0.214844"/><stop stop-opacity="1" stop-color="rgb(15.779114%, 73.48938%, 59.191895%)" offset="0.21875"/><stop stop-opacity="1" stop-color="rgb(16.381836%, 73.539734%, 58.740234%)" offset="0.222656"/><stop stop-opacity="1" stop-color="rgb(16.986084%, 73.591614%, 58.2901%)" offset="0.226562"/><stop stop-opacity="1" stop-color="rgb(17.588806%, 73.641968%, 57.83844%)" offset="0.230469"/><stop stop-opacity="1" stop-color="rgb(18.191528%, 73.693848%, 57.388306%)" offset="0.234375"/><stop stop-opacity="1" stop-color="rgb(18.79425%, 73.744202%, 56.938171%)" offset="0.238281"/><stop stop-opacity="1" stop-color="rgb(19.398499%, 73.794556%, 56.488037%)" offset="0.242188"/><stop stop-opacity="1" stop-color="rgb(20.001221%, 73.84491%, 56.036377%)" offset="0.246094"/><stop stop-opacity="1" stop-color="rgb(20.605469%, 73.89679%, 55.586243%)" offset="0.25"/><stop stop-opacity="1" stop-color="rgb(21.208191%, 73.947144%, 55.134583%)" offset="0.253906"/><stop stop-opacity="1" stop-color="rgb(21.812439%, 73.999023%, 54.684448%)" offset="0.257812"/><stop stop-opacity="1" stop-color="rgb(22.415161%, 74.049377%, 54.232788%)" offset="0.261719"/><stop stop-opacity="1" stop-color="rgb(23.019409%, 74.101257%, 53.782654%)" offset="0.265625"/><stop stop-opacity="1" stop-color="rgb(23.622131%, 74.151611%, 53.330994%)" offset="0.269531"/><stop stop-opacity="1" stop-color="rgb(24.226379%, 74.201965%, 52.880859%)" offset="0.273437"/><stop stop-opacity="1" stop-color="rgb(24.829102%, 74.252319%, 52.430725%)" offset="0.277344"/><stop stop-opacity="1" stop-color="rgb(25.43335%, 74.304199%, 51.980591%)" offset="0.28125"/><stop stop-opacity="1" stop-color="rgb(26.036072%, 74.354553%, 51.528931%)" offset="0.285156"/><stop stop-opacity="1" stop-color="rgb(26.64032%, 74.406433%, 51.078796%)" offset="0.289062"/><stop stop-opacity="1" stop-color="rgb(27.243042%, 74.456787%, 50.627136%)" offset="0.292969"/><stop stop-opacity="1" stop-color="rgb(27.845764%, 74.507141%, 50.177002%)" offset="0.296875"/><stop stop-opacity="1" stop-color="rgb(28.448486%, 74.557495%, 49.725342%)" offset="0.300781"/><stop stop-opacity="1" stop-color="rgb(29.052734%, 74.609375%, 49.275208%)" offset="0.304687"/><stop stop-opacity="1" stop-color="rgb(29.655457%, 74.659729%, 48.825073%)" offset="0.308594"/><stop stop-opacity="1" stop-color="rgb(30.259705%, 74.711609%, 48.374939%)" offset="0.3125"/><stop stop-opacity="1" stop-color="rgb(30.862427%, 74.761963%, 47.923279%)" offset="0.316406"/><stop stop-opacity="1" stop-color="rgb(31.466675%, 74.812317%, 47.473145%)" offset="0.320312"/><stop stop-opacity="1" stop-color="rgb(32.069397%, 74.862671%, 47.021484%)" offset="0.324219"/><stop stop-opacity="1" stop-color="rgb(32.673645%, 74.914551%, 46.57135%)" offset="0.328125"/><stop stop-opacity="1" stop-color="rgb(33.276367%, 74.964905%, 46.11969%)" offset="0.332031"/><stop stop-opacity="1" stop-color="rgb(33.880615%, 75.016785%, 45.669556%)" offset="0.335937"/><stop stop-opacity="1" stop-color="rgb(34.483337%, 75.067139%, 45.217896%)" offset="0.339844"/><stop stop-opacity="1" stop-color="rgb(35.087585%, 75.119019%, 44.767761%)" offset="0.34375"/><stop stop-opacity="1" stop-color="rgb(35.690308%, 75.169373%, 44.317627%)" offset="0.347656"/><stop stop-opacity="1" stop-color="rgb(36.294556%, 75.219727%, 43.867493%)" offset="0.351562"/><stop stop-opacity="1" stop-color="rgb(36.897278%, 75.270081%, 43.415833%)" offset="0.355469"/><stop stop-opacity="1" stop-color="rgb(37.5%, 75.32196%, 42.965698%)" offset="0.359375"/><stop stop-opacity="1" stop-color="rgb(38.102722%, 75.372314%, 42.514038%)" offset="0.363281"/><stop stop-opacity="1" stop-color="rgb(38.70697%, 75.424194%, 42.063904%)" offset="0.367188"/><stop stop-opacity="1" stop-color="rgb(39.309692%, 75.474548%, 41.612244%)" offset="0.371094"/><stop stop-opacity="1" stop-color="rgb(39.91394%, 75.524902%, 41.162109%)" offset="0.375"/><stop stop-opacity="1" stop-color="rgb(40.516663%, 75.575256%, 40.711975%)" offset="0.378906"/><stop stop-opacity="1" stop-color="rgb(41.120911%, 75.627136%, 40.261841%)" offset="0.382812"/><stop stop-opacity="1" stop-color="rgb(41.723633%, 75.67749%, 39.810181%)" offset="0.386719"/><stop stop-opacity="1" stop-color="rgb(42.327881%, 75.72937%, 39.360046%)" offset="0.390625"/><stop stop-opacity="1" stop-color="rgb(42.930603%, 75.779724%, 38.908386%)" offset="0.394531"/><stop stop-opacity="1" stop-color="rgb(43.534851%, 75.830078%, 38.458252%)" offset="0.398437"/><stop stop-opacity="1" stop-color="rgb(44.137573%, 75.880432%, 38.006592%)" offset="0.402344"/><stop stop-opacity="1" stop-color="rgb(44.741821%, 75.932312%, 37.556458%)" offset="0.40625"/><stop stop-opacity="1" stop-color="rgb(45.344543%, 75.982666%, 37.104797%)" offset="0.410156"/><stop stop-opacity="1" stop-color="rgb(45.948792%, 76.034546%, 36.654663%)" offset="0.414062"/><stop stop-opacity="1" stop-color="rgb(46.551514%, 76.0849%, 36.204529%)" offset="0.417969"/><stop stop-opacity="1" stop-color="rgb(47.154236%, 76.135254%, 35.754395%)" offset="0.421875"/><stop stop-opacity="1" stop-color="rgb(47.756958%, 76.185608%, 35.302734%)" offset="0.425781"/><stop stop-opacity="1" stop-color="rgb(48.361206%, 76.237488%, 34.8526%)" offset="0.429687"/><stop stop-opacity="1" stop-color="rgb(48.963928%, 76.287842%, 34.40094%)" offset="0.433594"/><stop stop-opacity="1" stop-color="rgb(49.568176%, 76.339722%, 33.950806%)" offset="0.4375"/><stop stop-opacity="1" stop-color="rgb(50.170898%, 76.390076%, 33.499146%)" offset="0.441406"/><stop stop-opacity="1" stop-color="rgb(50.775146%, 76.441956%, 33.049011%)" offset="0.445312"/><stop stop-opacity="1" stop-color="rgb(51.377869%, 76.49231%, 32.597351%)" offset="0.449219"/><stop stop-opacity="1" stop-color="rgb(51.982117%, 76.542664%, 32.147217%)" offset="0.453125"/><stop stop-opacity="1" stop-color="rgb(52.584839%, 76.593018%, 31.697083%)" offset="0.457031"/><stop stop-opacity="1" stop-color="rgb(53.189087%, 76.644897%, 31.246948%)" offset="0.460937"/><stop stop-opacity="1" stop-color="rgb(53.791809%, 76.695251%, 30.795288%)" offset="0.464844"/><stop stop-opacity="1" stop-color="rgb(54.396057%, 76.747131%, 30.345154%)" offset="0.46875"/><stop stop-opacity="1" stop-color="rgb(54.998779%, 76.797485%, 29.893494%)" offset="0.472656"/><stop stop-opacity="1" stop-color="rgb(55.603027%, 76.847839%, 29.443359%)" offset="0.476562"/><stop stop-opacity="1" stop-color="rgb(56.20575%, 76.898193%, 28.991699%)" offset="0.480469"/><stop stop-opacity="1" stop-color="rgb(56.808472%, 76.950073%, 28.541565%)" offset="0.484375"/><stop stop-opacity="1" stop-color="rgb(57.411194%, 77.000427%, 28.091431%)" offset="0.488281"/><stop stop-opacity="1" stop-color="rgb(58.015442%, 77.052307%, 27.641296%)" offset="0.492187"/><stop stop-opacity="1" stop-color="rgb(58.618164%, 77.102661%, 27.189636%)" offset="0.496094"/><stop stop-opacity="1" stop-color="rgb(59.222412%, 77.153015%, 26.739502%)" offset="0.5"/><stop stop-opacity="1" stop-color="rgb(59.825134%, 77.203369%, 26.287842%)" offset="0.503906"/><stop stop-opacity="1" stop-color="rgb(60.429382%, 77.255249%, 25.837708%)" offset="0.507812"/><stop stop-opacity="1" stop-color="rgb(61.032104%, 77.305603%, 25.386047%)" offset="0.511719"/><stop stop-opacity="1" stop-color="rgb(61.636353%, 77.357483%, 24.935913%)" offset="0.515625"/><stop stop-opacity="1" stop-color="rgb(62.239075%, 77.407837%, 24.484253%)" offset="0.519531"/><stop stop-opacity="1" stop-color="rgb(62.843323%, 77.459717%, 24.034119%)" offset="0.523438"/><stop stop-opacity="1" stop-color="rgb(63.446045%, 77.510071%, 23.583984%)" offset="0.527344"/><stop stop-opacity="1" stop-color="rgb(64.050293%, 77.560425%, 23.13385%)" offset="0.53125"/><stop stop-opacity="1" stop-color="rgb(64.620972%, 77.626038%, 22.70813%)" offset="0.535156"/><stop stop-opacity="1" stop-color="rgb(65.19165%, 77.69165%, 22.283936%)" offset="0.539062"/><stop stop-opacity="1" stop-color="rgb(65.54718%, 77.856445%, 22.03064%)" offset="0.542969"/><stop stop-opacity="1" stop-color="rgb(65.90271%, 78.02124%, 21.777344%)" offset="0.546875"/><stop stop-opacity="1" stop-color="rgb(66.25824%, 78.184509%, 21.524048%)" offset="0.550781"/><stop stop-opacity="1" stop-color="rgb(66.61377%, 78.349304%, 21.270752%)" offset="0.554688"/><stop stop-opacity="1" stop-color="rgb(66.967773%, 78.514099%, 21.017456%)" offset="0.558594"/><stop stop-opacity="1" stop-color="rgb(67.323303%, 78.678894%, 20.76416%)" offset="0.5625"/><stop stop-opacity="1" stop-color="rgb(67.678833%, 78.842163%, 20.510864%)" offset="0.566406"/><stop stop-opacity="1" stop-color="rgb(68.034363%, 79.006958%, 20.257568%)" offset="0.570312"/><stop stop-opacity="1" stop-color="rgb(68.389893%, 79.171753%, 20.004272%)" offset="0.574219"/><stop stop-opacity="1" stop-color="rgb(68.745422%, 79.336548%, 19.750977%)" offset="0.578125"/><stop stop-opacity="1" stop-color="rgb(69.100952%, 79.499817%, 19.497681%)" offset="0.582031"/><stop stop-opacity="1" stop-color="rgb(69.456482%, 79.664612%, 19.244385%)" offset="0.585938"/><stop stop-opacity="1" stop-color="rgb(69.812012%, 79.827881%, 18.991089%)" offset="0.589844"/><stop stop-opacity="1" stop-color="rgb(70.167542%, 79.992676%, 18.739319%)" offset="0.59375"/><stop stop-opacity="1" stop-color="rgb(70.521545%, 80.157471%, 18.486023%)" offset="0.597656"/><stop stop-opacity="1" stop-color="rgb(70.877075%, 80.322266%, 18.232727%)" offset="0.601562"/><stop stop-opacity="1" stop-color="rgb(71.232605%, 80.485535%, 17.979431%)" offset="0.605469"/><stop stop-opacity="1" stop-color="rgb(71.588135%, 80.65033%, 17.726135%)" offset="0.609375"/><stop stop-opacity="1" stop-color="rgb(71.943665%, 80.815125%, 17.472839%)" offset="0.613281"/><stop stop-opacity="1" stop-color="rgb(72.299194%, 80.979919%, 17.219543%)" offset="0.617188"/><stop stop-opacity="1" stop-color="rgb(72.654724%, 81.143188%, 16.966248%)" offset="0.621094"/><stop stop-opacity="1" stop-color="rgb(73.010254%, 81.307983%, 16.712952%)" offset="0.625"/><stop stop-opacity="1" stop-color="rgb(73.365784%, 81.472778%, 16.459656%)" offset="0.628906"/><stop stop-opacity="1" stop-color="rgb(73.721313%, 81.637573%, 16.20636%)" offset="0.632812"/><stop stop-opacity="1" stop-color="rgb(74.075317%, 81.800842%, 15.953064%)" offset="0.636719"/><stop stop-opacity="1" stop-color="rgb(74.430847%, 81.965637%, 15.699768%)" offset="0.640625"/><stop stop-opacity="1" stop-color="rgb(74.786377%, 82.130432%, 15.446472%)" offset="0.644531"/><stop stop-opacity="1" stop-color="rgb(75.141907%, 82.295227%, 15.194702%)" offset="0.648438"/><stop stop-opacity="1" stop-color="rgb(75.497437%, 82.458496%, 14.941406%)" offset="0.652344"/><stop stop-opacity="1" stop-color="rgb(75.852966%, 82.623291%, 14.68811%)" offset="0.65625"/><stop stop-opacity="1" stop-color="rgb(76.208496%, 82.78656%, 14.434814%)" offset="0.660156"/><stop stop-opacity="1" stop-color="rgb(76.564026%, 82.951355%, 14.181519%)" offset="0.664062"/><stop stop-opacity="1" stop-color="rgb(76.919556%, 83.11615%, 13.928223%)" offset="0.667969"/><stop stop-opacity="1" stop-color="rgb(77.275085%, 83.280945%, 13.674927%)" offset="0.671875"/><stop stop-opacity="1" stop-color="rgb(77.629089%, 83.444214%, 13.421631%)" offset="0.675781"/><stop stop-opacity="1" stop-color="rgb(77.984619%, 83.609009%, 13.168335%)" offset="0.679688"/><stop stop-opacity="1" stop-color="rgb(78.340149%, 83.773804%, 12.915039%)" offset="0.683594"/><stop stop-opacity="1" stop-color="rgb(78.695679%, 83.938599%, 12.661743%)" offset="0.6875"/><stop stop-opacity="1" stop-color="rgb(79.051208%, 84.101868%, 12.408447%)" offset="0.691406"/><stop stop-opacity="1" stop-color="rgb(79.406738%, 84.266663%, 12.155151%)" offset="0.695312"/><stop stop-opacity="1" stop-color="rgb(79.762268%, 84.431458%, 11.901855%)" offset="0.699219"/><stop stop-opacity="1" stop-color="rgb(80.117798%, 84.596252%, 11.650085%)" offset="0.703125"/><stop stop-opacity="1" stop-color="rgb(80.471802%, 84.759521%, 11.39679%)" offset="0.707031"/><stop stop-opacity="1" stop-color="rgb(80.827332%, 84.924316%, 11.143494%)" offset="0.710938"/><stop stop-opacity="1" stop-color="rgb(81.182861%, 85.089111%, 10.890198%)" offset="0.714844"/><stop stop-opacity="1" stop-color="rgb(81.538391%, 85.253906%, 10.636902%)" offset="0.71875"/><stop stop-opacity="1" stop-color="rgb(81.893921%, 85.417175%, 10.383606%)" offset="0.722656"/><stop stop-opacity="1" stop-color="rgb(82.249451%, 85.58197%, 10.13031%)" offset="0.726562"/><stop stop-opacity="1" stop-color="rgb(82.60498%, 85.745239%, 9.877014%)" offset="0.730469"/><stop stop-opacity="1" stop-color="rgb(82.96051%, 85.910034%, 9.623718%)" offset="0.734375"/><stop stop-opacity="1" stop-color="rgb(83.31604%, 86.074829%, 9.370422%)" offset="0.738281"/><stop stop-opacity="1" stop-color="rgb(83.67157%, 86.239624%, 9.117126%)" offset="0.742188"/><stop stop-opacity="1" stop-color="rgb(84.025574%, 86.402893%, 8.863831%)" offset="0.746094"/><stop stop-opacity="1" stop-color="rgb(84.381104%, 86.567688%, 8.610535%)" offset="0.75"/><stop stop-opacity="1" stop-color="rgb(84.736633%, 86.732483%, 8.357239%)" offset="0.753906"/><stop stop-opacity="1" stop-color="rgb(85.092163%, 86.897278%, 8.105469%)" offset="0.757812"/><stop stop-opacity="1" stop-color="rgb(85.447693%, 87.060547%, 7.852173%)" offset="0.761719"/><stop stop-opacity="1" stop-color="rgb(85.803223%, 87.225342%, 7.598877%)" offset="0.765625"/><stop stop-opacity="1" stop-color="rgb(86.158752%, 87.390137%, 7.345581%)" offset="0.769531"/><stop stop-opacity="1" stop-color="rgb(86.514282%, 87.554932%, 7.092285%)" offset="0.773438"/><stop stop-opacity="1" stop-color="rgb(86.869812%, 87.718201%, 6.838989%)" offset="0.777344"/><stop stop-opacity="1" stop-color="rgb(87.225342%, 87.882996%, 6.585693%)" offset="0.78125"/><stop stop-opacity="1" stop-color="rgb(87.579346%, 88.047791%, 6.332397%)" offset="0.785156"/><stop stop-opacity="1" stop-color="rgb(87.934875%, 88.212585%, 6.079102%)" offset="0.789062"/><stop stop-opacity="1" stop-color="rgb(88.290405%, 88.375854%, 5.825806%)" offset="0.792969"/><stop stop-opacity="1" stop-color="rgb(88.645935%, 88.540649%, 5.57251%)" offset="0.796875"/><stop stop-opacity="1" stop-color="rgb(89.001465%, 88.705444%, 5.319214%)" offset="0.800781"/><stop stop-opacity="1" stop-color="rgb(89.356995%, 88.870239%, 5.065918%)" offset="0.804688"/><stop stop-opacity="1" stop-color="rgb(89.712524%, 89.033508%, 4.812622%)" offset="0.808594"/><stop stop-opacity="1" stop-color="rgb(90.068054%, 89.198303%, 4.560852%)" offset="0.8125"/><stop stop-opacity="1" stop-color="rgb(90.423584%, 89.361572%, 4.307556%)" offset="0.816406"/><stop stop-opacity="1" stop-color="rgb(90.779114%, 89.526367%, 4.05426%)" offset="0.820312"/><stop stop-opacity="1" stop-color="rgb(91.133118%, 89.691162%, 3.800964%)" offset="0.824219"/><stop stop-opacity="1" stop-color="rgb(91.488647%, 89.855957%, 3.547668%)" offset="0.828125"/><stop stop-opacity="1" stop-color="rgb(91.844177%, 90.019226%, 3.294373%)" offset="0.832031"/><stop stop-opacity="1" stop-color="rgb(92.199707%, 90.184021%, 3.041077%)" offset="0.835938"/><stop stop-opacity="1" stop-color="rgb(92.555237%, 90.348816%, 2.787781%)" offset="0.839844"/><stop stop-opacity="1" stop-color="rgb(92.910767%, 90.513611%, 2.534485%)" offset="0.84375"/><stop stop-opacity="1" stop-color="rgb(93.266296%, 90.67688%, 2.281189%)" offset="0.847656"/><stop stop-opacity="1" stop-color="rgb(93.621826%, 90.841675%, 2.027893%)" offset="0.851562"/><stop stop-opacity="1" stop-color="rgb(93.97583%, 91.00647%, 1.774597%)" offset="0.855469"/><stop stop-opacity="1" stop-color="rgb(94.33136%, 91.171265%, 1.521301%)" offset="0.859375"/><stop stop-opacity="1" stop-color="rgb(94.68689%, 91.334534%, 1.268005%)" offset="0.863281"/><stop stop-opacity="1" stop-color="rgb(95.042419%, 91.499329%, 1.016235%)" offset="0.867188"/><stop stop-opacity="1" stop-color="rgb(95.397949%, 91.664124%, 0.762939%)" offset="0.871094"/><stop stop-opacity="1" stop-color="rgb(95.753479%, 91.828918%, 0.509644%)" offset="0.875"/><stop stop-opacity="1" stop-color="rgb(96.109009%, 91.992188%, 0.256348%)" offset="0.878906"/><stop stop-opacity="1" stop-color="rgb(96.464539%, 92.156982%, 0.00305176%)" offset="0.882812"/><stop stop-opacity="1" stop-color="rgb(96.466064%, 92.156982%, 0.00152588%)" offset="0.890625"/><stop stop-opacity="1" stop-color="rgb(96.469116%, 92.158508%, 0%)" offset="0.90625"/><stop stop-opacity="1" stop-color="rgb(96.469116%, 92.158508%, 0%)" offset="0.9375"/><stop stop-opacity="1" stop-color="rgb(96.469116%, 92.158508%, 0%)" offset="1"/></linearGradient></defs><g clip-path="url(#6d981bd632)"><g clip-path="url(#ba2f229176)"><path fill="url(#2e3e15c86b)" d="M 33.765625 0 L 33.765625 306.925781 L 341.234375 306.925781 L 341.234375 0 Z M 33.765625 0 " fill-rule="nonzero"/></g></g><path fill="#ff751f" d="M 227.144531 321.210938 C 203.910156 325.546875 180.132812 326.273438 155.542969 321.210938 C 151.925781 320.484375 148.851562 324.191406 148.851562 327.898438 C 148.851562 331.605469 151.835938 334.136719 155.542969 334.589844 C 179.769531 337.390625 203.636719 337.480469 227.144531 334.589844 C 230.757812 334.136719 233.832031 331.605469 233.832031 327.898438 C 233.742188 324.191406 230.667969 320.484375 227.144531 321.210938 Z M 227.144531 321.210938 " fill-opacity="1" fill-rule="evenodd"/><path fill="#ff751f" d="M 217.921875 341.277344 C 195.140625 343.269531 187.546875 343.628906 162.414062 341.097656 C 158.796875 340.738281 155.722656 344.082031 155.722656 347.789062 C 155.722656 351.496094 158.707031 354.296875 162.414062 354.476562 C 187.726562 355.472656 195.5 355.925781 217.921875 354.660156 C 221.539062 354.476562 224.609375 351.675781 224.609375 347.96875 C 224.519531 344.261719 221.539062 340.917969 217.921875 341.277344 Z M 217.921875 341.277344 " fill-opacity="1" fill-rule="evenodd"/><path fill="#ff751f" d="M 179.046875 359.359375 C 179.769531 375 202.914062 371.472656 203.457031 359.539062 C 200.472656 360.265625 196.855469 360.625 192.515625 360.625 C 188.179688 360.714844 182.210938 360.171875 179.046875 359.359375 Z M 179.046875 359.359375 " fill-opacity="1" fill-rule="evenodd"/></svg>